<?xml version="1.0" encoding="UTF-8"?>
<svg xmlns="http://www.w3.org/2000/svg" xmlns:xlink="http://www.w3.org/1999/xlink" width="146px" height="59px" viewBox="0 0 145 59" version="1.1">
<g id="surface1">
<path style=" stroke:none;fill-rule:nonzero;fill:rgb(13.72549%,12.156863%,12.54902%);fill-opacity:1;" d="M 51.847656 31.125 L 35.425781 31.125 C 36.183594 34.21875 38.679688 36.554688 41.933594 36.554688 C 43.761719 36.554688 45.5625 35.765625 46.765625 34.402344 L 50.738281 34.496094 C 48.988281 37.824219 45.65625 39.960938 41.789062 39.960938 C 36.144531 39.960938 31.703125 35.046875 31.703125 29.488281 C 31.703125 23.746094 36.066406 19.039062 41.867188 19.039062 C 47.484375 19.039062 51.964844 23.679688 51.964844 29.277344 C 51.953125 29.878906 51.914062 30.535156 51.847656 31.125 Z M 41.816406 22.433594 C 38.601562 22.433594 35.621094 24.976562 35.414062 28.253906 L 48.214844 28.253906 C 48.019531 25.003906 45.054688 22.433594 41.816406 22.433594 Z M 68.292969 39.464844 L 68.292969 28.660156 C 68.292969 25.292969 67.289062 22.445312 63.34375 22.445312 C 59.699219 22.445312 58.117188 25.277344 58.117188 28.632812 L 58.117188 39.476562 L 54.40625 39.476562 L 54.40625 19.574219 L 57.882812 19.574219 L 57.882812 21.6875 L 57.949219 21.6875 C 59.382812 19.785156 61.460938 19.023438 63.746094 19.023438 C 66.570312 19.023438 69.222656 20.136719 70.761719 22.578125 C 71.714844 24.085938 72.015625 25.90625 72.015625 27.675781 L 72.015625 39.464844 Z M 91.792969 39.464844 L 91.792969 36.632812 L 91.730469 36.632812 C 90.082031 38.941406 87.46875 39.960938 84.714844 39.960938 C 78.769531 39.960938 74.40625 35.519531 74.40625 29.589844 C 74.40625 23.625 78.703125 19.023438 84.714844 19.023438 C 87.210938 19.023438 89.859375 19.980469 91.441406 22 L 91.507812 22 L 91.507812 12.886719 L 95.214844 12.886719 L 95.214844 39.464844 Z M 84.921875 22.433594 C 80.992188 22.433594 78.128906 25.660156 78.128906 29.550781 C 78.128906 33.277344 81.109375 36.566406 84.898438 36.566406 C 88.761719 36.566406 91.792969 33.40625 91.792969 29.550781 C 91.792969 25.566406 88.972656 22.433594 84.921875 22.433594 Z M 105.992188 46.113281 L 102.140625 46.113281 L 105.027344 39.070312 L 97.125 19.574219 L 101.132812 19.574219 L 106.972656 35.019531 L 112.941406 19.574219 L 116.953125 19.574219 Z M 127.535156 39.960938 C 121.695312 39.960938 116.835938 35.253906 116.835938 29.367188 C 116.835938 23.507812 121.8125 19.023438 127.535156 19.023438 C 133.335938 19.023438 138.234375 23.546875 138.234375 29.433594 C 138.234375 35.113281 133.542969 39.960938 127.535156 39.960938 Z M 127.535156 22.433594 C 123.667969 22.433594 120.546875 25.59375 120.546875 29.472656 C 120.546875 33.355469 123.65625 36.554688 127.535156 36.554688 C 131.441406 36.554688 134.523438 33.328125 134.523438 29.449219 C 134.511719 25.566406 131.386719 22.433594 127.535156 22.433594 Z M 141.265625 39.464844 L 141.265625 12.886719 L 145 12.886719 L 145 39.464844 Z M 3.683594 35.542969 C 3.839844 36.171875 4.050781 36.699219 4.285156 37.089844 C 4.519531 37.484375 4.832031 37.824219 5.1875 38.152344 C 6.363281 39.1875 7.851562 39.714844 9.613281 39.714844 C 11.363281 39.714844 12.996094 39.28125 14.488281 38.453125 L 14.488281 34.875 C 12.945312 35.78125 11.46875 36.253906 10.085938 36.253906 C 8.203125 36.253906 7.222656 35.097656 7.222656 32.816406 L 7.222656 23.074219 L 13.46875 23.074219 L 13.46875 19.628906 L 7.261719 19.628906 L 7.261719 13.242188 L 3.578125 13.242188 L 3.578125 19.613281 L 0 19.613281 L 0 23.0625 L 3.421875 23.0625 L 3.421875 31.898438 C 3.421875 33.695312 3.515625 34.914062 3.683594 35.542969 Z M 26.191406 22.90625 C 27.339844 22.90625 28.609375 23.535156 29.953125 24.804688 L 31.976562 21.4375 C 30.332031 19.929688 28.347656 19.234375 27.183594 19.234375 L 26.921875 19.234375 C 25.589844 19.234375 23.355469 19.234375 21.554688 22.183594 L 21.488281 22.300781 L 21.5 19.628906 L 17.648438 19.628906 L 17.648438 39.347656 L 21.5 39.347656 L 21.5 29.042969 C 21.5 27.390625 21.960938 25.945312 22.886719 24.726562 C 23.8125 23.519531 24.925781 22.90625 26.191406 22.90625 Z M 26.191406 22.90625 "/>
</g>
</svg>
